<svg width="130" height="29" viewBox="0 0 130 29" fill="none" xmlns="http://www.w3.org/2000/svg">
<path d="M12.3779 3.4081C16.7739 1.82861 21.6745 2.94143 24.9175 6.27988C25.1337 6.53116 25.4941 6.60296 25.8184 6.49526C25.9265 6.45937 26.0346 6.38757 26.1066 6.31578C26.4309 5.9927 26.467 5.45424 26.1427 5.13116C22.4312 1.32605 16.81 0.033741 11.8013 1.82861C6.79266 3.65938 3.29739 8.25424 2.93705 13.5312C2.90102 13.9978 3.26136 14.3927 3.72979 14.4286C3.83791 14.4286 3.98204 14.4286 4.09015 14.3927C4.41445 14.285 4.63065 13.9978 4.63065 13.6748C4.95495 9.04398 7.98177 5.02347 12.3779 3.4081ZM4.19825 13.6389C4.19825 13.8183 4.09015 13.9619 3.90998 13.9978C3.83791 14.0337 3.80188 14.0337 3.72979 14.0337C3.51359 14.0337 3.33342 13.8183 3.33342 13.5671C3.69376 8.43373 7.08093 3.98246 11.9094 2.22348C16.7739 0.46451 22.215 1.72092 25.7823 5.41834C25.9625 5.59783 25.9265 5.84911 25.7823 6.0286C25.7463 6.0645 25.6742 6.10039 25.6382 6.13629C25.4941 6.20809 25.3139 6.17219 25.2058 6.0286C21.8547 2.54656 16.7739 1.36195 12.2337 3.01323C7.6935 4.6645 4.52255 8.8286 4.19825 13.6389Z" fill="#B12028"/>
<path d="M29.7098 14.463C29.5656 14.2835 29.3494 14.2117 29.1332 14.1758C29.0251 14.1758 28.917 14.1758 28.8089 14.2117C28.4846 14.3194 28.2684 14.6065 28.2684 14.9655C28.0522 19.7399 24.9894 23.8681 20.4852 25.5194C15.981 27.1707 10.9723 25.9501 7.72933 22.4322C7.51313 22.1809 7.15279 22.1091 6.82849 22.2168C6.72039 22.2527 6.61229 22.3245 6.54022 22.3963C6.36005 22.5399 6.28799 22.7553 6.25195 22.9707C6.25195 23.186 6.32402 23.4014 6.46815 23.5809C10.1796 27.6014 15.9089 29.0014 21.0617 27.1348C26.2145 25.2681 29.7098 20.5296 29.926 15.0732C29.926 14.8578 29.8539 14.6424 29.7098 14.463ZM20.8816 26.7399C15.9089 28.5348 10.3598 27.2065 6.75642 23.2937C6.61229 23.1142 6.61229 22.863 6.79246 22.6835C6.82849 22.6476 6.90056 22.6117 6.93659 22.6117C7.08072 22.5399 7.26089 22.6117 7.40503 22.7194C10.7561 26.3809 15.945 27.6373 20.6293 25.9501C25.3137 24.263 28.4486 19.9553 28.6648 15.0373C28.6648 14.8578 28.7729 14.7142 28.9531 14.6783C28.9891 14.6424 29.0612 14.6424 29.1332 14.6424C29.3494 14.6424 29.5296 14.8578 29.5296 15.0732C29.2413 20.3501 25.8902 24.945 20.8816 26.7399Z" fill="#B12028"/>
<path d="M20.4853 8.109C20.7015 8.25259 20.9898 8.28849 21.242 8.1808C21.4222 8.109 21.5663 8.00131 21.6744 7.82182C21.7825 7.64234 21.8185 7.39105 21.7825 7.17567C21.7465 6.96028 21.6023 6.7808 21.4222 6.63721C18.9719 5.09362 15.9811 4.77054 13.2786 5.77567C10.54 6.7808 8.48612 8.89875 7.62131 11.6628C7.54925 11.8782 7.58528 12.0936 7.65735 12.309C7.76545 12.5244 7.94562 12.668 8.16182 12.7398C8.34198 12.8116 8.52215 12.7757 8.70232 12.7398C8.95455 12.6321 9.13472 12.4526 9.20679 12.2013C9.92746 9.93977 11.621 8.1808 13.8551 7.39105C16.0532 6.56541 18.4674 6.8167 20.4853 8.109ZM8.77439 12.0577C8.73835 12.2013 8.63025 12.2731 8.52215 12.309C8.45008 12.3449 8.34198 12.3449 8.23388 12.309C8.01768 12.2372 7.87355 11.9859 7.94562 11.7705C8.77439 9.15003 10.7562 7.10387 13.3506 6.13464C15.9451 5.16541 18.7917 5.48849 21.1339 6.96028C21.3141 7.06798 21.3861 7.35516 21.278 7.53464C21.242 7.60644 21.1339 7.67823 21.0618 7.71413C20.9537 7.75003 20.8096 7.75003 20.7015 7.67823C18.5755 6.35003 16.0171 6.06285 13.6749 6.92439C11.2967 7.82182 9.53109 9.68849 8.77439 12.0577Z" fill="#B12028"/>
<path d="M12.7382 22.972C14.9363 23.9054 17.3505 23.9772 19.5846 23.1874C21.8187 22.3618 23.6203 20.7464 24.7013 18.6284C24.9175 18.1977 24.7374 17.6951 24.341 17.5156C24.1248 17.4079 23.8726 17.4079 23.6564 17.4797C23.4402 17.5515 23.296 17.6951 23.1879 17.9105C22.3231 19.6336 20.8097 20.9618 19.008 21.6438C17.1703 22.29 15.1885 22.2541 13.3868 21.4643C13.1706 21.3925 12.9544 21.3566 12.7742 21.4284C12.558 21.5002 12.3779 21.6797 12.2698 21.8951C12.0896 22.29 12.3058 22.7925 12.7382 22.972ZM12.6661 22.0387C12.7022 21.931 12.8103 21.8592 12.9184 21.8233C13.0265 21.7874 13.1346 21.7874 13.2427 21.8233C15.1164 22.649 17.2424 22.6849 19.1522 22.0028C21.098 21.3208 22.6474 19.9207 23.5843 18.09C23.6203 17.9823 23.7284 17.9105 23.8005 17.8746C23.9086 17.8387 24.0167 17.8387 24.1248 17.9105C24.341 18.0182 24.4131 18.2695 24.305 18.4849C23.296 20.4951 21.5664 22.0387 19.4044 22.8284C17.2784 23.6182 14.9363 23.5464 12.8463 22.649C12.6661 22.5054 12.5941 22.2541 12.6661 22.0387Z" fill="#B12028"/>
<path d="M34.3223 6.31641H33.6377V22.6138H34.3223V6.31641Z" fill="#002F87"/>
<path d="M48.555 16.2241C48.555 17.4087 48.3028 18.2703 47.8343 18.8446C47.3659 19.419 46.5011 19.6703 45.2399 19.6703C44.5193 19.6703 43.9427 19.5626 43.5103 19.3831C43.0779 19.2036 42.7536 18.9164 42.5014 18.5933C42.2491 18.2703 42.105 17.9113 42.0329 17.4805C41.9609 17.0497 41.9248 16.6549 41.9248 16.2241V6.31641H38.3936V16.2241C38.3936 18.4138 38.9701 19.9933 40.1592 21.0344C41.3483 22.0754 43.0058 22.6138 45.2039 22.6138C47.3299 22.6138 49.0234 22.0754 50.2125 21.0344C51.4377 19.9933 52.0142 18.3779 52.0142 16.2241V6.31641H48.4829V16.2241H48.555Z" fill="#002F87"/>
<path d="M64.302 17.0138H64.2659L57.5997 6.31641H54.1045V22.2549H57.3835V11.5933H57.4556L64.0858 22.2549H67.6171V6.31641H64.302V17.0138Z" fill="#002F87"/>
<path d="M73.2022 6.31641H69.6709V22.2549H73.2022V6.31641Z" fill="#002F87"/>
<path d="M85.4182 12.9574H78.752V9.26H86.4632V6.31641H75.2207V22.2549H78.752V15.6856H85.4182V12.9574Z" fill="#002F87"/>
<path d="M90.4628 6.31641L84.4092 22.2549H87.9405L89.2016 18.701H95.1832L96.4083 22.2549H100.048L94.0662 6.31641H90.4628ZM90.1385 16.1164L92.2285 10.2651H92.2645L94.2824 16.1164H90.1385Z" fill="#002F87"/>
<path d="M109.416 18.6982C108.803 19.3444 107.974 19.6674 106.893 19.6674C106.101 19.6674 105.416 19.5238 104.875 19.2008C104.335 18.9136 103.866 18.4828 103.542 17.9802C103.182 17.4777 102.966 16.9033 102.785 16.2572C102.641 15.611 102.533 14.9649 102.533 14.3187C102.533 13.6367 102.605 12.9546 102.785 12.2726C102.93 11.6264 103.182 11.052 103.542 10.5136C103.903 10.011 104.335 9.58025 104.875 9.29307C105.416 9.00589 106.101 8.8264 106.893 8.8264C107.326 8.8264 107.758 8.8982 108.118 9.04179C108.515 9.18538 108.875 9.36486 109.199 9.61615C109.524 9.86743 109.776 10.1546 109.992 10.5136C110.208 10.8367 110.353 11.2315 110.389 11.6264H113.776C113.668 10.6931 113.415 9.90333 113.019 9.18538C112.623 8.46743 112.118 7.85717 111.47 7.3905C110.857 6.92384 110.136 6.52897 109.38 6.27768C108.587 6.0264 107.758 5.88281 106.893 5.88281C105.668 5.88281 104.551 6.0982 103.578 6.52897C102.605 6.95974 101.777 7.56999 101.092 8.32384C100.407 9.07768 99.9028 9.97512 99.5425 10.9802C99.1821 11.9854 99.002 13.0982 99.002 14.2828C99.002 15.4315 99.1821 16.5085 99.5425 17.5136C99.9028 18.5187 100.407 19.3802 101.092 20.1341C101.777 20.8879 102.605 21.4623 103.578 21.8931C104.551 22.3238 105.668 22.5392 106.893 22.5392C107.866 22.5392 108.767 22.3956 109.596 22.1085C110.425 21.8213 111.145 21.3905 111.758 20.8161C112.37 20.2418 112.875 19.5597 113.235 18.77C113.596 17.9802 113.848 17.0828 113.92 16.0777H110.533C110.389 17.1905 109.992 18.052 109.416 18.6982Z" fill="#002F87"/>
<path d="M127.829 15.327C127.432 14.7526 127 14.286 126.459 13.9629C125.919 13.6039 125.414 13.3885 124.874 13.2091C124.333 13.0655 123.937 12.9578 123.649 12.886C122.64 12.6347 121.847 12.4193 121.235 12.2757C120.622 12.0962 120.118 11.9526 119.793 11.7732C119.433 11.5937 119.217 11.4142 119.073 11.2347C118.964 11.0552 118.892 10.8039 118.892 10.4808C118.892 10.1219 118.964 9.87059 119.109 9.61931C119.253 9.36803 119.433 9.22444 119.685 9.04495C119.901 8.90136 120.19 8.79367 120.442 8.72187C120.73 8.65008 121.018 8.65008 121.307 8.65008C121.739 8.65008 122.135 8.68598 122.496 8.75777C122.856 8.82957 123.18 8.97316 123.469 9.15264C123.757 9.33213 123.973 9.58341 124.153 9.87059C124.333 10.1937 124.442 10.5885 124.442 11.0552V11.6655H127.829V11.0552C127.829 10.1219 127.649 9.33213 127.288 8.68598C126.928 8.03982 126.459 7.50136 125.883 7.10649C125.27 6.67572 124.586 6.38854 123.829 6.20905C123.072 6.02957 122.244 5.92188 121.415 5.92188C120.694 5.92188 119.973 6.02957 119.253 6.20905C118.532 6.38854 117.883 6.71162 117.343 7.10649C116.766 7.50136 116.334 8.00393 115.974 8.61418C115.613 9.22444 115.433 9.94239 115.433 10.7321C115.433 11.4501 115.577 12.0962 115.866 12.5988C116.154 13.1014 116.514 13.5321 116.947 13.8911C117.379 14.2501 117.919 14.5014 118.46 14.7167C119.037 14.9321 119.613 15.1116 120.19 15.2552C120.766 15.4347 121.343 15.5783 121.919 15.686C122.496 15.8296 123 15.9732 123.433 16.1526C123.865 16.3321 124.225 16.5475 124.514 16.8347C124.802 17.086 124.946 17.445 124.946 17.8757C124.946 18.2706 124.838 18.5937 124.622 18.8808C124.406 19.1321 124.153 19.3475 123.829 19.4911C123.505 19.6347 123.18 19.7424 122.82 19.7783C122.46 19.8142 122.135 19.8501 121.811 19.8501C121.343 19.8501 120.91 19.7783 120.478 19.6706C120.045 19.5629 119.685 19.3834 119.361 19.168C119.037 18.9526 118.784 18.6296 118.604 18.2706C118.424 17.9116 118.316 17.445 118.316 16.9065V16.045H114.929V16.9065C114.929 17.8757 115.109 18.7373 115.469 19.4552C115.83 20.1732 116.334 20.7475 116.983 21.2142C117.631 21.6808 118.352 22.0039 119.181 22.2193C120.009 22.4347 120.874 22.5424 121.739 22.5424C122.82 22.5424 123.793 22.3988 124.622 22.1475C125.45 21.8962 126.135 21.5373 126.712 21.0706C127.288 20.6039 127.685 20.0655 127.973 19.4552C128.261 18.845 128.405 18.1629 128.405 17.4091C128.405 16.6193 128.189 15.9014 127.829 15.327Z" fill="#002F87"/>
<path d="M8.66608 21.4641C8.55798 21.3923 8.41385 21.2846 8.30575 21.1052C8.19765 20.9616 8.16161 20.8539 8.05351 20.8898C7.94541 20.9257 7.98145 21.1052 8.01748 21.2128C8.05351 21.3205 8.30575 21.9667 8.30575 21.9667C8.30575 21.9667 8.37781 22.1821 8.48591 22.1462C8.59402 22.1103 8.55798 22.0026 8.55798 21.9667C8.55798 21.9308 8.59402 21.8949 8.63005 21.8949C8.73815 21.9308 9.06245 21.9667 9.20659 21.8949L9.09848 21.6077C9.09848 21.6077 8.84625 21.6077 8.66608 21.4641Z" fill="#002F87"/>
<path d="M14.5398 18.6987C14.3957 18.7346 14.5038 19.0577 14.4317 19.2372C14.3597 19.5244 14.1074 19.668 14.1074 19.668L14.2155 19.9551L15.0083 19.668L14.684 18.7705C14.684 18.7705 14.6479 18.6628 14.5398 18.6987Z" fill="#002F87"/>
<path d="M27.0791 14.9304C27.0431 14.8945 26.4665 14.2483 26.2503 13.997C26.4665 13.7817 26.6107 13.4586 26.4305 12.9919C26.0341 11.9509 24.9531 12.5252 24.9531 12.5252L25.0252 12.7047C25.1333 12.7047 25.3855 12.597 25.4936 12.8842C25.5657 13.0637 25.7459 13.5663 25.8179 13.7458C25.89 13.9252 25.6378 14.1406 25.5657 14.1765L25.6378 14.3919C25.6378 14.3919 26.4665 15.3252 26.5026 15.397C26.6107 15.5047 26.6827 15.4688 26.6827 15.4688L27.2593 15.2535C27.3313 15.2176 27.4034 15.1458 27.3313 15.0381C27.2953 14.8945 27.1512 15.0381 27.0791 14.9304Z" fill="#002F87"/>
<path d="M3.54965 16.2574C3.54965 16.2574 3.47758 16.042 3.65775 15.8984C3.76586 15.7908 3.65775 15.5754 3.47758 15.6472L3.00915 15.8267C2.82898 15.8984 2.82898 16.1138 3.00915 16.1138C3.11725 16.1138 3.22535 16.1497 3.29742 16.3292L3.94602 18.1241C3.94602 18.1241 4.12619 18.5549 3.69379 18.842L3.80189 19.1292C3.90999 19.0933 4.45049 18.6984 4.23429 18.1241L3.54965 16.2574Z" fill="#002F87"/>
<path d="M3.18881 18.7016L2.39608 16.5477C2.39608 16.5477 2.36004 16.44 2.43211 16.3682C2.54021 16.3323 2.50418 16.0451 2.25194 16.1169L1.35111 16.44C1.35111 16.44 1.243 16.4759 1.243 16.5477C1.20697 16.6195 1.243 16.7272 1.35111 16.7631C1.42317 16.7631 1.45921 16.7631 1.49524 16.8708L2.25194 18.9528C2.36004 19.2759 2.68435 19.3836 2.97261 19.3836C3.33295 19.4195 3.65725 19.24 3.65725 19.24L3.54915 18.9528C3.26088 18.9528 3.18881 18.7016 3.18881 18.7016Z" fill="#002F87"/>
<path d="M5.60327 18.126C5.56723 18.126 5.4231 18.0183 5.38707 17.9106L4.91863 16.5824L4.4502 16.1875L5.13483 18.0183C5.13483 18.0183 5.2069 18.2337 5.06277 18.3772C4.95466 18.4849 5.02673 18.7003 5.24293 18.6285L5.7474 18.449C5.7474 18.449 5.89154 18.4131 5.8555 18.2696C5.78344 18.126 5.71137 18.126 5.60327 18.126Z" fill="#002F87"/>
<path d="M5.81964 15.1472C5.85567 15.1472 5.99981 15.2549 6.03584 15.3626L6.32411 16.1523L6.75651 16.5472L6.28808 15.2549C6.28808 15.2549 6.21601 15.0395 6.36014 14.9318C6.46824 14.8241 6.36014 14.6087 6.17998 14.6446L5.71154 14.86C5.71154 14.86 5.56741 14.8959 5.60344 15.0395C5.63947 15.1472 5.74757 15.1113 5.81964 15.1472Z" fill="#002F87"/>
<path d="M5.02671 15.0742L4.0538 15.3973C4.0538 15.3973 3.9457 15.4332 3.90967 15.4691C3.87363 15.5409 3.87363 15.6486 4.01777 15.6845C4.08983 15.7204 4.1619 15.6845 4.27 15.7922L6.64821 18.0178L7.22475 17.8024L6.82838 16.7614L5.02671 15.0742Z" fill="#002F87"/>
<path d="M8.84642 16.977C8.73832 16.977 8.70229 16.8693 8.70229 16.8693L7.87352 14.5718C7.87352 14.5718 7.80145 14.4283 7.87352 14.3924C7.98162 14.3206 7.94558 14.0334 7.69335 14.1411L6.79251 14.4642C6.79251 14.4642 6.68441 14.5001 6.68441 14.5718C6.64838 14.6436 6.68441 14.7872 6.79251 14.7872C6.86458 14.7872 6.90061 14.7872 6.93665 14.8949L7.76542 17.1924C7.83748 17.3359 7.76542 17.3359 7.72938 17.4077C7.65732 17.5154 7.72938 17.6231 7.76542 17.659C7.83748 17.6949 7.90955 17.659 7.90955 17.659L8.81039 17.3359C9.13469 17.1924 9.02659 16.9411 8.84642 16.977Z" fill="#002F87"/>
<path d="M17.7823 10.4427C17.6742 10.4786 17.7102 10.5863 17.7102 10.6222C17.7102 10.6581 17.6742 10.694 17.6382 10.6581C17.5301 10.6222 17.2778 10.6222 17.0977 10.6581L17.2058 10.9094C17.2058 10.9094 17.422 10.9094 17.5661 10.9812C17.6382 11.0171 17.7823 11.1248 17.8904 11.3043C17.9985 11.4479 18.0345 11.5556 18.1787 11.5197C18.2868 11.4838 18.2507 11.3043 18.2147 11.1966C18.1787 11.0889 17.9625 10.5504 17.9625 10.5504C17.9625 10.5504 17.9264 10.3709 17.7823 10.4427Z" fill="#002F87"/>
<path d="M17.4581 14.0699C17.5662 14.1058 17.8905 14.1058 18.0346 14.0699L17.9265 13.7828C17.9265 13.7828 17.6743 13.7828 17.4941 13.6751C17.386 13.6033 17.2419 13.4956 17.1338 13.3161C17.0257 13.1725 16.9896 13.0648 16.8455 13.1007C16.7374 13.1366 16.7734 13.3161 16.8095 13.4238C16.8455 13.5315 17.0977 14.1776 17.0977 14.1776C17.0977 14.1776 17.1698 14.393 17.2779 14.3571C17.386 14.3212 17.35 14.2135 17.35 14.1776C17.422 14.0699 17.422 14.034 17.4581 14.0699Z" fill="#002F87"/>
<path d="M16.9901 12.7774C17.2784 12.921 17.6387 12.8851 17.8189 12.9569C17.9991 12.9927 18.2153 13.0286 18.2873 13.244C18.3954 13.5671 18.1072 13.7107 18.1072 13.7107L18.2153 13.9979C18.5756 13.8902 19.1161 13.3517 18.8639 12.562C18.6477 11.9876 18.3954 11.9517 18.1792 11.844C17.891 11.7363 17.4586 11.7004 17.2784 11.6645C17.0982 11.6286 16.9901 11.5569 16.9181 11.3774C16.846 11.1261 17.0622 10.9825 17.0622 10.9825L16.9541 10.6953C16.3776 10.9107 16.1974 11.521 16.3776 12.0235C16.5217 12.4184 16.6298 12.5979 16.9901 12.7774Z" fill="#002F87"/>
<path d="M18.4674 10.552C18.5394 10.5879 18.5755 10.552 18.6115 10.6956L19.4403 12.993C19.5123 13.1366 19.4403 13.1366 19.4042 13.2084C19.3322 13.2802 19.4042 13.4238 19.4403 13.4597C19.5123 13.4956 19.5844 13.4597 19.5844 13.4597L20.4853 13.1366C20.7375 13.0648 20.6294 12.8135 20.4853 12.8494C20.3772 12.8135 20.3411 12.7058 20.3411 12.7058L19.5123 10.4084C19.5123 10.4084 19.4403 10.2648 19.5484 10.2289C19.6565 10.1571 19.6204 9.90581 19.3682 9.97761L18.4674 10.3007C18.4674 10.3007 18.3593 10.3366 18.3232 10.3725C18.3232 10.4084 18.3593 10.552 18.4674 10.552Z" fill="#002F87"/>
<path d="M12.1608 16.0446C12.2329 16.0804 12.305 16.0446 12.305 16.0446L13.2418 15.7215L12.0888 12.5625L11.1879 12.8856C11.1879 12.8856 11.0798 12.9215 11.0438 12.9574C11.0078 13.0292 11.0438 13.1728 11.1519 13.1728C11.224 13.1728 11.26 13.1728 11.296 13.2804L12.1248 15.5779C12.1608 15.6856 12.1248 15.7215 12.0888 15.7574C12.0527 15.8651 12.0888 16.0087 12.1608 16.0446Z" fill="#002F87"/>
<path d="M12.846 12.9203C13.0261 13.028 13.1342 13.3511 13.3144 13.2793C13.4225 13.2434 13.3865 13.1357 13.3865 13.1357L13.0622 12.2383L12.2334 12.5255L12.3415 12.8126C12.3415 12.8126 12.6298 12.7767 12.846 12.9203Z" fill="#002F87"/>
<path d="M13.4229 14.607C13.531 14.5711 13.495 14.4635 13.495 14.4635L13.0986 13.3506C13.0986 13.3506 13.0626 13.2788 12.9545 13.3147C12.8824 13.3506 12.8464 13.4224 12.8824 13.5301C12.9545 13.8891 12.7383 13.925 12.7383 13.925L12.8824 14.2481C12.8824 14.2481 13.0626 14.1763 13.2428 14.4635C13.2788 14.5711 13.3148 14.6429 13.4229 14.607Z" fill="#002F87"/>
<path d="M14.1799 15.3633L13.8556 14.4658C13.8556 14.4658 13.8196 14.3581 13.7115 14.394C13.5674 14.4299 13.6394 14.753 13.5674 14.9684C13.4593 15.2556 13.207 15.3992 13.207 15.3992L13.3151 15.6864L14.1799 15.3633Z" fill="#002F87"/>
<path d="M19.8719 9.79722C19.8359 9.86901 19.8719 10.0126 19.98 10.0126C20.0521 10.0485 20.0881 10.0126 20.1241 10.1203L20.9529 12.4177C21.025 12.5613 20.9529 12.5613 20.9169 12.6331C20.8448 12.7049 20.9169 12.8485 20.9529 12.8844C21.025 12.9203 21.0971 12.8844 21.0971 12.8844L21.9979 12.5613L20.8448 9.40234L19.944 9.72542C20.016 9.68952 19.9079 9.72542 19.8719 9.79722Z" fill="#002F87"/>
<path d="M21.7101 9.76054C21.8182 10.0477 22.3227 11.4118 22.4308 11.7708C22.5389 12.0221 22.2146 12.3093 22.1425 12.3452L22.2146 12.5246C22.7191 12.3452 22.7911 12.058 22.8632 11.8785C22.9353 11.7349 23.0794 11.1605 22.8632 10.5144C22.647 9.86823 22.2867 9.50926 21.8903 9.32977C21.4939 9.15028 21.0615 9.32977 21.0615 9.32977L21.1336 9.47336C21.2057 9.47336 21.602 9.47336 21.7101 9.76054Z" fill="#002F87"/>
<path d="M24.9536 8.21963C25.0257 8.25553 25.0617 8.21963 25.0977 8.32732L25.9265 10.6248C25.9986 10.7683 25.9265 10.7683 25.8905 10.8401C25.8184 10.9119 25.8905 11.0555 25.9265 11.0914C25.9986 11.1273 26.0706 11.0914 26.0706 11.0914L26.9715 10.7683L25.8184 7.60938L24.9176 7.93245C24.9176 7.93245 24.8095 7.96835 24.7734 8.00425C24.8095 8.07604 24.8095 8.21963 24.9536 8.21963Z" fill="#002F87"/>
<path d="M26.8278 7.57196C26.3954 7.39247 25.999 7.57196 25.999 7.57196L26.0351 7.75145C26.1432 7.75145 26.5395 7.75145 26.6476 8.00273C26.7557 8.32581 27.2602 9.65401 27.3683 10.0489C27.4404 10.3002 27.1521 10.5873 27.044 10.5873L27.1161 10.7668C27.6205 10.5873 27.6926 10.3002 27.7647 10.1207C27.8367 9.97709 28.0169 9.40273 27.7647 8.75657C27.5845 8.07452 27.2242 7.71555 26.8278 7.57196Z" fill="#002F87"/>
<path d="M24.0528 10.6576L23.6564 10.8011L23.6924 11.0883L24.233 10.9088L24.4131 11.196C24.4852 11.3396 24.4492 11.3396 24.4131 11.3755C24.3411 11.4832 24.3771 11.5909 24.4492 11.6268C24.5212 11.6627 24.5933 11.6268 24.5933 11.6268L25.4941 11.3037C25.7464 11.2319 25.6383 10.9806 25.4941 10.9806C25.386 10.9447 25.35 10.8729 25.35 10.8729L23.8006 8.32422L23.0078 8.6114L23.0438 9.00627L24.0528 10.6576Z" fill="#002F87"/>
<path d="M23.9447 11.6988C23.9087 11.5911 23.8366 11.627 23.7285 11.5911C23.6925 11.5911 23.6204 11.5552 23.5844 11.3758L23.3682 9.72448L23.0799 9.25781C23.0799 9.25781 23.2961 11.4476 23.2961 11.5552C23.2961 11.627 23.2601 11.6988 23.188 11.7347C23.1159 11.8065 23.0439 11.8424 23.0799 11.9501C23.1159 12.0219 23.188 12.0578 23.2961 12.0219L23.8366 11.8424C23.8366 11.8783 23.9807 11.8424 23.9447 11.6988Z" fill="#002F87"/>
<path d="M10.8284 16.188L9.45908 13.9982C9.38701 13.8547 9.45908 13.8547 9.49511 13.7829C9.56718 13.6752 9.49511 13.5675 9.45908 13.5316C9.42305 13.4957 9.31495 13.5316 9.31495 13.5316L8.41411 13.8547C8.16187 13.9623 8.26997 14.1777 8.45014 14.1777C8.55824 14.1777 8.59428 14.2854 8.59428 14.2854L10.1437 16.7982L10.9365 16.5111L10.8284 16.188Z" fill="#002F87"/>
<path d="M9.96326 13.459C9.99929 13.5667 10.0714 13.5308 10.1795 13.5667C10.2155 13.5667 10.2876 13.6026 10.3236 13.7821L10.5398 15.3975L10.8281 15.9L10.6119 13.8539C10.6119 13.8539 10.6119 13.6744 10.6119 13.6026C10.6119 13.5308 10.6119 13.459 10.6839 13.3872C10.756 13.3154 10.8641 13.2795 10.8281 13.1718C10.792 13.1 10.72 13.0641 10.6119 13.1L10.0714 13.2795C10.0353 13.2795 9.89119 13.3154 9.96326 13.459Z" fill="#002F87"/>
<path d="M14.5752 11.6659L14.6473 11.8454C14.7193 11.8454 15.0076 11.7736 15.0797 12.0248C15.1157 12.2043 15.3319 12.7069 15.404 12.8864C15.476 13.0659 15.2598 13.2813 15.1517 13.3172L15.2238 13.4966C15.2238 13.4966 16.0526 14.4659 16.0886 14.5377C16.1967 14.6454 16.2688 14.6095 16.2688 14.6095L16.8453 14.3941C16.9174 14.3582 16.9894 14.2505 16.9174 14.1787C16.8093 13.9992 16.7012 14.1428 16.6291 14.071C16.5931 14.0351 16.0165 13.3889 15.8003 13.1377C16.0165 12.9223 16.1607 12.5992 15.9805 12.1325C15.6922 11.0915 14.5752 11.6659 14.5752 11.6659Z" fill="#002F87"/>
<path d="M13.4586 12.3446C13.5307 12.3446 13.5667 12.3446 13.6027 12.4523L14.4315 14.7498C14.5036 14.8933 14.4315 14.8933 14.3955 14.9651C14.3234 15.0728 14.3955 15.1805 14.4315 15.2164C14.5036 15.2523 14.5756 15.2164 14.5756 15.2164L15.5125 14.8933C15.7647 14.7857 15.6566 14.5703 15.4765 14.5703C15.3684 14.5344 15.3323 14.4626 15.3323 14.4626L14.3594 11.7344L13.4586 12.0575C13.4586 12.0575 13.3505 12.0933 13.3145 12.1292C13.3145 12.201 13.3505 12.3446 13.4586 12.3446Z" fill="#002F87"/>
<path d="M27.5121 6.99886C27.5121 6.99886 27.404 7.03476 27.368 7.07065C27.332 7.14245 27.368 7.28604 27.4761 7.28604C27.5482 7.32194 27.5842 7.28604 27.6202 7.39373L28.449 9.69117C28.485 9.83476 28.449 9.83476 28.413 9.90655C28.3409 9.97835 28.413 10.1219 28.449 10.1578C28.5211 10.1937 28.5931 10.1578 28.5931 10.1578L29.53 9.83476L28.3769 6.67578L27.5121 6.99886Z" fill="#002F87"/>
<path d="M29.2053 7.03435C29.3855 7.14205 29.4936 7.42923 29.6738 7.39333C29.7819 7.35743 29.7458 7.21384 29.7458 7.21384L29.4215 6.31641L28.5928 6.60359L28.7009 6.89077C28.6648 6.92666 28.9531 6.89077 29.2053 7.03435Z" fill="#002F87"/>
<path d="M29.3138 7.39404C29.2057 7.42994 29.2057 7.50174 29.2057 7.64533C29.2777 8.0043 29.0615 8.0402 29.0615 8.0402L29.1696 8.36328C29.1696 8.36328 29.3498 8.29148 29.53 8.57866C29.602 8.72225 29.6381 8.75815 29.7462 8.72225C29.8543 8.68635 29.8182 8.57866 29.8182 8.57866L29.4219 7.46584C29.4219 7.46584 29.3858 7.35815 29.3138 7.39404Z" fill="#002F87"/>
<path d="M30.07 8.50332C29.9259 8.57511 29.9979 8.89819 29.9259 9.07768C29.8178 9.36486 29.6016 9.50845 29.6016 9.50845L29.7097 9.79563L30.5384 9.50845L30.2141 8.61101C30.2141 8.57511 30.1781 8.46742 30.07 8.50332Z" fill="#002F87"/>
<path d="M8.73787 18.4858C8.62977 18.4499 8.37753 18.414 8.2334 18.4858L8.3415 18.7371C8.3415 18.7371 8.5577 18.7371 8.70183 18.8448C8.7739 18.8807 8.91804 18.9884 9.02614 19.1678C9.13424 19.3114 9.2063 19.4191 9.3144 19.3832C9.4225 19.3473 9.35044 19.1678 9.3144 19.0601C9.27837 18.9525 9.06217 18.414 9.06217 18.414C9.06217 18.414 9.02614 18.1986 8.882 18.2345C8.7739 18.2704 8.80993 18.3781 8.80993 18.414C8.80993 18.4499 8.7739 18.4858 8.73787 18.4858Z" fill="#002F87"/>
<path d="M9.24304 19.6682C8.95477 19.5606 8.5584 19.5247 8.37823 19.4529C8.19807 19.417 8.126 19.3452 8.05393 19.1657C7.98186 18.9144 8.19807 18.7708 8.19807 18.7708L8.08997 18.5195C7.51343 18.7349 7.3693 19.3452 7.54946 19.8477C7.6936 20.2067 7.76566 20.3862 8.126 20.5657C8.41427 20.7093 8.7746 20.7093 8.95477 20.7452C9.13494 20.817 9.35114 20.817 9.42321 21.0682C9.53131 21.3913 9.24304 21.5349 9.24304 21.5349L9.35114 21.8221C9.71147 21.6785 10.2159 21.1759 9.92768 20.4221C9.71147 19.8477 9.45924 19.7759 9.24304 19.6682Z" fill="#002F87"/>
<path d="M15.0441 16.6193C14.9721 16.4758 15.0441 16.4758 15.0802 16.404C15.1522 16.2963 15.0802 16.1886 15.0441 16.1527C14.9721 16.1168 14.9 16.1527 14.9 16.1527L14.0352 16.4758C13.783 16.5475 13.8911 16.7988 14.0712 16.7629C14.1433 16.7988 14.2154 16.9065 14.2154 16.9065L15.7288 19.4552L16.4855 19.204L16.3774 18.8091L15.0441 16.6193Z" fill="#002F87"/>
<path d="M16.2692 15.7929C16.2332 15.7211 16.1611 15.6852 16.0891 15.7211L15.5846 15.9006C15.5846 15.9006 15.4405 15.9365 15.4765 16.0801C15.5125 16.1878 15.5846 16.1519 15.6927 16.1878C15.7287 16.1878 15.8008 16.2237 15.8368 16.4032L16.053 18.0185L16.3413 18.5211L16.0891 16.5109C16.0891 16.5109 16.0891 16.3314 16.0891 16.2596C16.0891 16.1878 16.0891 16.116 16.1611 16.0442C16.2332 15.9724 16.3413 15.9365 16.2692 15.7929Z" fill="#002F87"/>
<path d="M19.6922 17.9462C19.7642 17.9821 19.8363 17.9462 19.8363 17.9462L20.7011 17.6231L19.5841 14.5L18.7193 14.7872C18.7193 14.7872 18.6112 14.8231 18.6112 14.859C18.5751 14.9308 18.6112 15.0744 18.7193 15.0744C18.7913 15.0744 18.8274 15.0744 18.8634 15.1821L19.6922 17.4795C19.7642 17.6231 19.6922 17.6231 19.6561 17.6949C19.5841 17.8026 19.6561 17.9103 19.6922 17.9462Z" fill="#002F87"/>
<path d="M20.4851 14.4653C20.0888 14.2858 19.6924 14.4294 19.6924 14.4294L19.7284 14.6089C19.8365 14.6089 20.2329 14.6089 20.305 14.896C20.4131 15.2191 20.9175 16.5473 21.0256 16.9063C21.0977 17.1576 20.8094 17.4448 20.7374 17.4448L20.7734 17.6242C21.2418 17.4448 21.3139 17.1576 21.386 17.014C21.458 16.8704 21.6022 16.296 21.3499 15.6499C21.2058 15.0037 20.8815 14.6448 20.4851 14.4653Z" fill="#002F87"/>
<path d="M23.5839 16.4736L23.656 16.6531C24.0163 16.5095 24.1244 16.2223 24.1965 16.0428C24.2686 15.8992 24.4127 15.289 24.1605 14.6428C23.9443 13.9967 23.5839 13.6377 23.1876 13.4223C22.7912 13.2428 22.5029 13.3864 22.5029 13.3864L22.539 13.53C22.6471 13.53 22.9353 13.6018 23.0074 13.8531C23.1155 14.1762 23.62 15.5403 23.7641 15.9351C23.8722 16.2223 23.656 16.4377 23.5839 16.4736Z" fill="#002F87"/>
<path d="M22.2872 13.6397L22.2511 13.4961C22.2511 13.4961 21.9268 13.5679 21.7467 13.9987C21.5665 14.3935 21.5305 14.8961 21.7827 15.5422C22.0349 16.1884 22.5034 16.5474 22.6475 16.6192C22.7916 16.691 23.0799 16.8705 23.4402 16.7269L23.3682 16.5474C23.2961 16.5833 22.9718 16.5115 22.8997 16.2602C22.7556 15.8653 22.2511 14.5012 22.143 14.1781C22.0349 13.9269 22.2151 13.7115 22.2872 13.6397Z" fill="#002F87"/>
<path d="M13.1344 17.0831C13.2064 17.0472 13.2064 16.76 12.9542 16.8318L12.0894 17.1549C12.0894 17.1549 11.9813 17.1908 11.9813 17.2267C11.9453 17.2985 11.9813 17.442 12.0894 17.442C12.1254 17.442 12.1975 17.442 12.2335 17.5497L13.0623 19.8472C13.0983 19.9908 13.0623 19.9908 13.0263 20.0267C12.9542 20.1343 13.0263 20.242 13.0623 20.2779C13.1344 20.3138 13.2064 20.2779 13.2064 20.2779L14.0712 19.9908L13.0983 17.2626C13.0983 17.2985 13.0623 17.1549 13.1344 17.0831Z" fill="#002F87"/>
<path d="M12.63 20.2416C12.5579 20.2057 12.4858 20.1339 12.4858 20.1339L10.9364 17.6211L10.1797 17.9083L10.2157 18.3031L11.2247 19.9544L10.7923 20.098L10.8283 20.3852L11.3688 20.2057L11.549 20.4929C11.621 20.6365 11.585 20.6365 11.549 20.6724C11.4769 20.7801 11.5129 20.8878 11.585 20.9237C11.621 20.9596 11.7291 20.9237 11.7291 20.9237L12.666 20.6006C12.8822 20.457 12.7741 20.2057 12.63 20.2416Z" fill="#002F87"/>
<path d="M10.8639 20.856C10.8278 20.856 10.7558 20.8201 10.7197 20.6406L10.5035 18.9894L10.2513 18.5586C10.2513 18.5586 10.4675 20.7483 10.4675 20.856C10.4675 20.9278 10.4315 20.9996 10.3954 21.0355C10.3234 21.1073 10.2153 21.1432 10.2513 21.2509C10.2873 21.3227 10.3594 21.3586 10.4675 21.3227L11.008 21.1432C11.008 21.1432 11.1521 21.1073 11.1161 20.9637C11.044 20.856 10.972 20.8919 10.8639 20.856Z" fill="#002F87"/>
<path d="M25.8905 15.4687C25.7824 15.4328 25.7463 15.361 25.7463 15.361L24.7734 12.6328L23.8726 12.9559C23.8726 12.9559 23.7645 12.9918 23.7645 13.0277C23.7285 13.0995 23.7645 13.2431 23.8726 13.2431C23.9447 13.2431 23.9807 13.2431 24.0167 13.3867L24.8455 15.6841C24.9176 15.8277 24.8455 15.8277 24.8095 15.8995C24.7374 16.0072 24.8095 16.1149 24.8455 16.1508C24.9176 16.1867 24.9896 16.1508 24.9896 16.1508L25.8905 15.8277C26.1787 15.6841 26.0706 15.4328 25.8905 15.4687Z" fill="#002F87"/>
<path d="M19.1515 17.9111C19.0434 17.8752 19.0073 17.7675 19.0073 17.7675L17.4579 15.2188L16.7012 15.5059L16.7372 15.9008L17.7101 17.5521L17.3137 17.6957L17.3498 18.0187L17.8903 17.8393L18.0704 18.1264C18.1425 18.27 18.1065 18.27 18.0704 18.3059C17.9984 18.4136 18.0344 18.4854 18.1065 18.5572C18.1785 18.5931 18.2506 18.5572 18.2506 18.5572L19.1515 18.2341C19.4037 18.1264 19.2956 17.8752 19.1515 17.9111Z" fill="#002F87"/>
<path d="M17.6029 18.6285C17.5669 18.5208 17.4588 18.5567 17.3867 18.5208C17.3507 18.5208 17.2786 18.4849 17.2426 18.3054L17.0264 16.6542L16.7381 16.1875C16.7381 16.1875 16.9543 18.4131 16.9543 18.4849C16.9543 18.5567 16.9183 18.6285 16.8462 18.6644C16.7741 18.7362 16.7021 18.7721 16.7381 18.9157C16.7741 18.9875 16.8462 19.0234 16.9183 18.9875L17.4588 18.808C17.4948 18.7721 17.6389 18.7362 17.6029 18.6285Z" fill="#002F87"/>
<path d="M7.58559 9.76066C7.65766 9.79655 7.72972 9.79655 7.80179 9.76066C7.87386 9.76066 7.90989 9.72476 7.98196 9.65297C8.01799 9.61707 8.09006 9.54527 8.12609 9.47348C8.16213 9.40168 8.19816 9.32989 8.23419 9.25809C8.27023 9.1863 8.27023 9.1145 8.23419 9.04271C8.23419 8.97091 8.19816 8.89912 8.12609 8.86322C8.05403 8.79143 7.98196 8.75553 7.87386 8.68373L6.93699 8.10938L6.72079 8.50425L7.76576 9.1504C7.83782 9.1863 7.87386 9.2222 7.87386 9.25809C7.87386 9.29399 7.87386 9.32989 7.87386 9.36579C7.83783 9.40168 7.83782 9.43758 7.80179 9.43758C7.76576 9.43758 7.72972 9.43758 7.65766 9.36579L6.61269 8.71963L6.39648 9.1145L7.33336 9.68886C7.40542 9.72476 7.51352 9.76066 7.58559 9.76066Z" fill="#002F87"/>
<path d="M9.45882 7.71601L8.73815 6.96216L9.67502 7.50062L10.0354 7.17754L8.84625 5.95703L8.52195 6.24421L9.27865 6.99806L8.34178 6.4596L7.98145 6.78267L9.17055 8.00319L9.45882 7.71601Z" fill="#002F87"/>
<path d="M10.4788 4.75391L10.1133 4.98397L11.0178 6.41032L11.3834 6.18026L10.4788 4.75391Z" fill="#002F87"/>
<path d="M12.9181 5.45504L12.6659 4.80888L13.1704 4.62939L13.0623 4.30632L12.5578 4.4858L12.4497 4.19862L12.9902 4.01913L12.8461 3.66016L11.9092 4.01913L12.5217 5.59862L12.9181 5.45504Z" fill="#002F87"/>
<path d="M14.8639 4.6273L15.2243 4.59141L15.2963 4.87859L15.7648 4.80679L15.1162 3.19141L14.5757 3.2632L14.3955 4.98628L14.8639 4.91448V4.6273ZM14.9 3.55038L15.1162 4.23243L14.8639 4.26833L14.9 3.55038Z" fill="#002F87"/>
<path d="M17.1335 4.80679C17.2056 4.84269 17.3137 4.87859 17.4218 4.87859C17.4938 4.87859 17.5659 4.87859 17.638 4.87859C17.71 4.87859 17.7821 4.84269 17.8181 4.80679C17.8902 4.77089 17.9262 4.6991 17.9623 4.6273C17.9983 4.55551 18.0343 4.44782 18.0343 4.34012V4.23243L17.6019 4.19653C17.6019 4.26833 17.6019 4.34012 17.5659 4.41192C17.5659 4.44782 17.5299 4.51961 17.5299 4.51961C17.5299 4.55551 17.4938 4.55551 17.4938 4.59141C17.4578 4.59141 17.4578 4.59141 17.4218 4.59141C17.3857 4.59141 17.3497 4.59141 17.3497 4.55551C17.3497 4.51961 17.3137 4.51961 17.3137 4.44782C17.3137 4.41192 17.3137 4.34012 17.3137 4.26833C17.3137 4.19653 17.3137 4.08884 17.3497 3.98115C17.3497 3.87346 17.3857 3.76577 17.3857 3.69397C17.3857 3.62218 17.4218 3.55038 17.4218 3.51448C17.4218 3.47859 17.4578 3.44269 17.4938 3.44269C17.5299 3.44269 17.5299 3.40679 17.5659 3.44269C17.6019 3.44269 17.638 3.47859 17.638 3.51448C17.638 3.55038 17.638 3.62218 17.638 3.72987V3.83756L18.0704 3.87346V3.76577C18.0704 3.69397 18.0704 3.62218 18.0704 3.55038C18.0704 3.47859 18.0343 3.40679 17.9983 3.37089C17.9623 3.335 17.8902 3.2632 17.8542 3.2632C17.7821 3.2273 17.71 3.2273 17.6019 3.19141C17.4938 3.19141 17.3857 3.19141 17.3137 3.19141C17.2416 3.2273 17.1695 3.2632 17.0975 3.335C17.0254 3.40679 16.9894 3.47859 16.9533 3.58628C16.9173 3.69397 16.8812 3.83756 16.8812 3.98115C16.8812 4.12474 16.8452 4.26833 16.8812 4.37602C16.8812 4.48371 16.9173 4.59141 16.9533 4.6632C16.9894 4.735 17.0614 4.77089 17.1335 4.80679Z" fill="#002F87"/>
<path d="M19.4398 5.31155C19.5119 5.34744 19.584 5.38334 19.656 5.41924C19.8362 5.49103 19.9803 5.49103 20.1245 5.45514C20.2326 5.41924 20.3407 5.31155 20.4127 5.13206C20.4488 5.02437 20.4488 4.95257 20.4488 4.88078C20.4488 4.80898 20.4127 4.73719 20.3767 4.70129C20.3407 4.62949 20.3046 4.5936 20.2326 4.5577C20.1965 4.5218 20.1245 4.4859 20.0884 4.41411C20.0524 4.37821 20.0164 4.34231 19.9803 4.30642C19.9443 4.27052 19.9443 4.19873 19.9803 4.16283C19.9803 4.12693 20.0164 4.09103 20.0524 4.09103C20.0884 4.05513 20.1245 4.05513 20.1605 4.09103C20.1965 4.09103 20.2326 4.12693 20.2326 4.16283C20.2326 4.19873 20.2326 4.23462 20.2326 4.30642V4.34231L20.6289 4.4859C20.701 4.30642 20.701 4.16283 20.6289 4.05513C20.5929 3.94744 20.4488 3.87564 20.2686 3.80385C20.0884 3.73205 19.9443 3.73205 19.8362 3.80385C19.7281 3.87564 19.62 3.98333 19.584 4.12693C19.5479 4.23462 19.5479 4.30642 19.5479 4.37821C19.5479 4.45001 19.584 4.5218 19.62 4.5577C19.656 4.5936 19.6921 4.66539 19.7641 4.70129C19.8002 4.73719 19.8722 4.77308 19.9083 4.80898C19.9443 4.84488 19.9803 4.88078 20.0164 4.91667C20.0524 4.95257 20.0524 4.98847 20.0164 5.06026C20.0164 5.09616 19.9803 5.13206 19.9443 5.16796C19.9083 5.20385 19.8722 5.20385 19.8362 5.16796C19.8002 5.16796 19.7641 5.13206 19.7641 5.09616C19.7641 5.06026 19.7641 5.02437 19.7641 4.95257V4.91667L19.3678 4.77308H19.2597C19.2236 4.84488 19.2236 4.91667 19.2236 4.98847C19.2236 5.06026 19.2597 5.09616 19.2957 5.16796C19.3317 5.20385 19.3678 5.23975 19.4398 5.31155Z" fill="#002F87"/>
<path d="M16.1611 24.9116C16.1971 24.8757 16.2332 24.8757 16.2332 24.8398C16.2692 24.8039 16.2692 24.768 16.3052 24.7321C16.3413 24.6962 16.3413 24.6603 16.3413 24.5885C16.3413 24.4449 16.3052 24.3731 16.2332 24.2654C16.1611 24.1936 16.053 24.1218 15.8728 24.1218L15.1882 24.0859L15.0801 25.7731L15.7647 25.809C15.8728 25.809 15.9449 25.809 16.017 25.7731C16.089 25.7372 16.1251 25.7372 16.1971 25.6654C16.2332 25.6295 16.2692 25.5577 16.3052 25.5218C16.3413 25.45 16.3413 25.3782 16.3413 25.3064C16.3413 25.2706 16.3413 25.2347 16.3413 25.1629C16.3413 25.127 16.3052 25.0911 16.3052 25.0552C16.2692 25.0193 16.2692 24.9834 16.1971 24.9475C16.1611 24.9116 16.1251 24.9116 16.053 24.9116C16.089 24.9475 16.1611 24.9475 16.1611 24.9116ZM15.8368 25.4859C15.8007 25.5218 15.7647 25.5218 15.7287 25.5218H15.6206L15.6566 25.127H15.7647C15.8007 25.127 15.8368 25.1629 15.8728 25.1988C15.9088 25.2347 15.9089 25.2706 15.9089 25.3423C15.8728 25.3782 15.8728 25.45 15.8368 25.4859ZM15.8368 24.768C15.8007 24.8039 15.7647 24.8039 15.7287 24.8039H15.6206L15.6566 24.4449H15.7647C15.8007 24.4449 15.8368 24.4808 15.8728 24.5167C15.9088 24.5526 15.9089 24.5885 15.9089 24.6603C15.9089 24.6962 15.8728 24.7321 15.8368 24.768Z" fill="#002F87"/>
<path d="M17.7106 24.0843L17.6025 25.8073L18.071 25.7355V25.4484L18.4313 25.3766L18.5394 25.6637L19.0078 25.5919L18.3232 23.9766L17.7106 24.0843ZM18.071 25.0894V24.3714L18.3232 25.0535L18.071 25.0894Z" fill="#002F87"/>
<path d="M20.2326 23.367L20.4848 23.9413L20.2326 24.049L19.9804 23.4747L19.584 23.6542L20.2326 25.1978L20.629 25.0542L20.3767 24.408L20.629 24.3003L20.8812 24.9465L21.2776 24.767L20.629 23.1875L20.2326 23.367Z" fill="#002F87"/>
<path d="M21.9233 22.4336L21.5625 22.671L22.496 24.0788L22.8568 23.8414L21.9233 22.4336Z" fill="#002F87"/>
<path d="M23.0078 21.5707L23.9087 23.0783L24.233 22.7553L24.0528 22.504L24.305 22.2527L24.5573 22.4322L24.8816 22.1091L23.4042 21.1758L23.0078 21.5707ZM23.4402 21.6424L24.0168 22.0732L23.8366 22.2527L23.4402 21.6424Z" fill="#002F87"/>
</svg>
